<?xml version="1.0" encoding="UTF-8"?>

<!DOCTYPE svg PUBLIC '-//W3C//DTD SVG 1.0//EN' 'http://www.w3.org/TR/2001/REC-SVG-20010904/DTD/svg10.dtd'>
<svg style="fill-opacity:1; color-rendering:auto; color-interpolation:auto; text-rendering:auto; stroke:black; stroke-linecap:square; stroke-miterlimit:10; shape-rendering:auto; stroke-opacity:1; fill:black; stroke-dasharray:none; font-weight:normal; stroke-width:1; font-family:&apos;Dialog&apos;; font-style:normal; stroke-linejoin:miter; font-size:12; stroke-dashoffset:0; image-rendering:auto;" xmlns="http://www.w3.org/2000/svg" width="428.0" xmlns:xlink="http://www.w3.org/1999/xlink" height="156.0">
  <!--Generated by the Batik Graphics2D SVG Generator-->
  <defs id="genericDefs" />
  <g>
    <g style="fill:white; stroke:white;">
      <rect x="0" y="0" width="1901" style="stroke:none;" height="880" />
    </g>
    <g style="font-family:sans-serif; font-size:14;">
      <text xml:space="preserve" x="282" y="99" style="stroke:none;">INSTRUCTION_READY</text>
      <text xml:space="preserve" x="22" y="49" style="stroke:none;">READ_DRAM</text>
      <text xml:space="preserve" x="9" y="149" style="stroke:none;">WRITE_DRAM</text>
      <text xml:space="preserve" x="128" y="54" style="stroke:none;">PERFORM_READ</text>
      <text xml:space="preserve" x="125" y="154" style="stroke:none;">PERFORM_WRITE</text>
      <line x1="55" x2="175" y1="125" style="fill:none;" y2="125" />
      <polygon style="stroke:none;" points=" 184 125 175 121 175 129 184 125" />
      <line x1="184" x2="175" y1="125" style="fill:none;" y2="125" />
      <line x1="185" x2="335" y1="125" style="fill:none;" y2="79" />
      <polygon style="stroke:none;" points=" 345 77 335 76 337 83 345 77" />
      <line x1="345" x2="335" y1="77" style="fill:none;" y2="79" />
      <line x1="185" x2="335" y1="25" style="fill:none;" y2="71" />
      <polygon style="stroke:none;" points=" 345 73 337 67 335 74 345 73" />
      <line x1="345" x2="335" y1="73" style="fill:none;" y2="71" />
      <line x1="65" x2="175" y1="25" style="fill:none;" y2="25" />
      <polygon style="stroke:none;" points=" 184 25 175 21 175 29 184 25" />
      <line x1="184" x2="175" y1="25" style="fill:none;" y2="25" />
      <circle style="fill:blue; stroke:none;" r="9.5" cx="354.5" cy="74.5" />
      <circle style="fill:blue; stroke:none;" r="9.5" cx="64.5" cy="24.5" />
      <circle style="fill:blue; stroke:none;" r="9.5" cx="54.5" cy="124.5" />
      <rect x="184" y="10" width="3" style="fill:blue; stroke:none;" rx="1.5" ry="1.5" height="30" />
      <rect x="184" y="110" width="3" style="fill:blue; stroke:none;" rx="1.5" ry="1.5" height="30" />
    </g>
  </g>
</svg>
