<?xml version="1.0" encoding="UTF-8"?>

<!DOCTYPE svg PUBLIC '-//W3C//DTD SVG 1.0//EN' 'http://www.w3.org/TR/2001/REC-SVG-20010904/DTD/svg10.dtd'>
<svg style="fill-opacity:1; color-rendering:auto; color-interpolation:auto; text-rendering:auto; stroke:black; stroke-linecap:square; stroke-miterlimit:10; shape-rendering:auto; stroke-opacity:1; fill:black; stroke-dasharray:none; font-weight:normal; stroke-width:1; font-family:&apos;Dialog&apos;; font-style:normal; stroke-linejoin:miter; font-size:12; stroke-dashoffset:0; image-rendering:auto;" xmlns="http://www.w3.org/2000/svg" width="448.0" xmlns:xlink="http://www.w3.org/1999/xlink" height="306.0">
  <!--Generated by the Batik Graphics2D SVG Generator-->
  <defs id="genericDefs" />
  <g>
    <g style="fill:white; stroke:white;">
      <rect x="0" y="0" width="1901" style="stroke:none;" height="880" />
    </g>
    <g style="font-family:sans-serif; font-size:14;">
      <text xml:space="preserve" x="302" y="249" style="stroke:none;">INSTRUCTION_READY</text>
      <text xml:space="preserve" x="42" y="199" style="stroke:none;">READ_DRAM</text>
      <text xml:space="preserve" x="29" y="299" style="stroke:none;">WRITE_DRAM</text>
      <text xml:space="preserve" x="148" y="204" style="stroke:none;">PERFORM_READ</text>
      <text xml:space="preserve" x="145" y="304" style="stroke:none;">PERFORM_WRITE</text>
      <line x1="75" x2="195" y1="275" style="fill:none;" y2="275" />
      <polygon style="stroke:none;" points=" 204 275 195 271 195 279 204 275" />
      <line x1="204" x2="195" y1="275" style="fill:none;" y2="275" />
      <line x1="205" x2="355" y1="275" style="fill:none;" y2="229" />
      <polygon style="stroke:none;" points=" 365 227 355 226 357 233 365 227" />
      <line x1="365" x2="355" y1="227" style="fill:none;" y2="229" />
      <line x1="85" x2="195" y1="175" style="fill:none;" y2="175" />
      <polygon style="stroke:none;" points=" 204 175 195 171 195 179 204 175" />
      <line x1="204" x2="195" y1="175" style="fill:none;" y2="175" />
      <line x1="205" x2="355" y1="175" style="fill:none;" y2="221" />
      <polygon style="stroke:none;" points=" 365 223 357 217 355 224 365 223" />
      <line x1="365" x2="355" y1="223" style="fill:none;" y2="221" />
      <circle style="fill:blue; stroke:none;" r="9.5" cx="374.5" cy="224.5" />
      <circle style="fill:blue; stroke:none;" r="9.5" cx="84.5" cy="174.5" />
      <circle style="fill:blue; stroke:none;" r="9.5" cx="74.5" cy="274.5" />
      <rect x="204" y="160" width="3" style="fill:blue; stroke:none;" rx="1.5" ry="1.5" height="30" />
      <rect x="204" y="260" width="3" style="fill:blue; stroke:none;" rx="1.5" ry="1.5" height="30" />
    </g>
  </g>
</svg>
