<?xml version="1.0" encoding="UTF-8"?>

<!DOCTYPE svg PUBLIC '-//W3C//DTD SVG 1.0//EN' 'http://www.w3.org/TR/2001/REC-SVG-20010904/DTD/svg10.dtd'>
<svg style="fill-opacity:1; color-rendering:auto; color-interpolation:auto; text-rendering:auto; stroke:black; stroke-linecap:square; stroke-miterlimit:10; shape-rendering:auto; stroke-opacity:1; fill:black; stroke-dasharray:none; font-weight:normal; stroke-width:1; font-family:&apos;Dialog&apos;; font-style:normal; stroke-linejoin:miter; font-size:12; stroke-dashoffset:0; image-rendering:auto;" xmlns="http://www.w3.org/2000/svg" width="769.0" xmlns:xlink="http://www.w3.org/1999/xlink" height="476.0">
  <!--Generated by the Batik Graphics2D SVG Generator-->
  <defs id="genericDefs" />
  <g>
    <g style="fill:white; stroke:white;">
      <rect x="0" y="0" width="1897" style="stroke:none;" height="845" />
    </g>
    <g style="fill:white; stroke:white;">
      <circle r="3.5" style="stroke:none;" cx="765.5" cy="295.5" />
      <circle r="3.5" style="stroke:none;" cx="765.5" cy="125.5" />
      <circle r="3.5" style="stroke:none;" cx="665.5" cy="15.5" />
      <circle r="3.5" style="stroke:none;" cx="465.5" cy="5.5" />
      <circle r="3.5" style="stroke:none;" cx="265.5" cy="75.5" />
      <circle r="3.5" style="stroke:none;" cx="135.5" cy="455.5" />
      <circle r="3.5" style="stroke:none;" cx="5.5" cy="395.5" />
      <circle r="3.5" style="stroke:none;" cx="35.5" cy="225.5" />
    </g>
    <g style="font-family:sans-serif; font-size:14;">
      <text xml:space="preserve" x="132" y="179" style="stroke:none;">INSTRUCTION_READY</text>
      <text xml:space="preserve" x="375" y="379" style="stroke:none;">FLOAT_ALU</text>
      <text xml:space="preserve" x="478" y="339" style="stroke:none;">INT_ALU</text>
      <text xml:space="preserve" x="148" y="299" style="stroke:none;">REGISTERS_FILL</text>
      <text xml:space="preserve" x="555" y="99" style="stroke:none;">BARRIER</text>
      <text xml:space="preserve" x="84" y="329" style="stroke:none;">SCHEDULER</text>
      <text xml:space="preserve" x="606" y="179" style="stroke:none;">READ</text>
      <text xml:space="preserve" x="603" y="259" style="stroke:none;">WRITE</text>
      <text xml:space="preserve" x="186" y="389" style="stroke:none;">Input_Gate1</text>
      <text xml:space="preserve" x="374" y="249" style="stroke:none;">Output_Gate</text>
      <text xml:space="preserve" x="282" y="274" style="stroke:none;">DISPATCHER</text>
      <text xml:space="preserve" x="373" y="104" style="stroke:none;">BARRIER_SYNC</text>
      <text xml:space="preserve" x="379" y="474" style="stroke:none;">FLOAT_OP</text>
      <text xml:space="preserve" x="581" y="394" style="stroke:none;">INT_OP</text>
      <line x1="205" x2="225" y1="275" style="fill:none;" y2="365" />
      <line x1="125" x2="225" y1="305" style="fill:none;" y2="365" />
      <line x1="585" x2="436" y1="75" style="fill:none;" y2="75" />
      <polygon style="stroke:none;" points=" 426 75 435 79 435 71 426 75" />
      <line x1="426" x2="436" y1="75" style="fill:none;" y2="75" />
      <line x1="425" x2="225" y1="75" style="fill:none;" y2="149" />
      <polygon style="stroke:none;" points=" 215 152 225 152 222 145 215 152" />
      <line x1="215" x2="225" y1="152" style="fill:none;" y2="149" />
      <line x1="225" x2="325" y1="365" style="fill:none;" y2="245" />
      <line x1="415" x2="409" y1="445" style="fill:none;" y2="445" />
      <line x1="409" x2="368" y1="445" style="fill:none;" y2="446" />
      <line x1="368" x2="272" y1="446" style="fill:none;" y2="448" />
      <line x1="272" x2="160" y1="448" style="fill:none;" y2="443" />
      <line x1="160" x2="113" y1="443" style="fill:none;" y2="434" />
      <line x1="113" x2="76" y1="434" style="fill:none;" y2="421" />
      <line x1="76" x2="61" y1="421" style="fill:none;" y2="412" />
      <line x1="61" x2="49" y1="412" style="fill:none;" y2="402" />
      <line x1="49" x2="39" y1="402" style="fill:none;" y2="390" />
      <line x1="39" x2="31" y1="390" style="fill:none;" y2="376" />
      <line x1="31" x2="26" y1="376" style="fill:none;" y2="361" />
      <line x1="26" x2="24" y1="361" style="fill:none;" y2="345" />
      <line x1="24" x2="25" y1="345" style="fill:none;" y2="309" />
      <line x1="25" x2="36" y1="309" style="fill:none;" y2="274" />
      <line x1="36" x2="55" y1="274" style="fill:none;" y2="243" />
      <line x1="55" x2="80" y1="243" style="fill:none;" y2="217" />
      <line x1="80" x2="109" y1="217" style="fill:none;" y2="197" />
      <line x1="109" x2="160" y1="197" style="fill:none;" y2="173" />
      <line x1="160" x2="181" y1="173" style="fill:none;" y2="164" />
      <line x1="181" x2="185" y1="164" style="fill:none;" y2="163" />
      <polygon style="stroke:none;" points=" 195 159 185 159 188 166 195 159" />
      <line x1="195" x2="185" y1="159" style="fill:none;" y2="163" />
      <line x1="325" x2="415" y1="245" style="fill:none;" y2="225" />
      <line x1="415" x2="585" y1="225" style="fill:none;" y2="75" />
      <line x1="415" x2="625" y1="225" style="fill:none;" y2="155" />
      <line x1="415" x2="415" y1="355" style="fill:none;" y2="430" />
      <polygon style="stroke:none;" points=" 415 430 419 421 411 421 415 430" />
      <line x1="415" x2="415" y1="430" style="fill:none;" y2="430" />
      <line x1="415" x2="415" y1="225" style="fill:none;" y2="355" />
      <line x1="415" x2="505" y1="225" style="fill:none;" y2="315" />
      <line x1="415" x2="625" y1="225" style="fill:none;" y2="235" />
      <line x1="505" x2="594" y1="315" style="fill:none;" y2="361" />
      <polygon style="stroke:none;" points=" 604 365 597 357 594 364 604 365" />
      <line x1="604" x2="594" y1="365" style="fill:none;" y2="361" />
      <line x1="605" x2="608" y1="365" style="fill:none;" y2="363" />
      <line x1="608" x2="631" y1="363" style="fill:none;" y2="353" />
      <line x1="631" x2="685" y1="353" style="fill:none;" y2="326" />
      <line x1="685" x2="714" y1="326" style="fill:none;" y2="305" />
      <line x1="714" x2="727" y1="305" style="fill:none;" y2="292" />
      <line x1="727" x2="738" y1="292" style="fill:none;" y2="278" />
      <line x1="738" x2="747" y1="278" style="fill:none;" y2="262" />
      <line x1="747" x2="753" y1="262" style="fill:none;" y2="245" />
      <line x1="753" x2="759" y1="245" style="fill:none;" y2="209" />
      <line x1="759" x2="757" y1="209" style="fill:none;" y2="171" />
      <line x1="757" x2="748" y1="171" style="fill:none;" y2="135" />
      <line x1="748" x2="732" y1="135" style="fill:none;" y2="101" />
      <line x1="732" x2="710" y1="101" style="fill:none;" y2="73" />
      <line x1="710" x2="682" y1="73" style="fill:none;" y2="49" />
      <line x1="682" x2="648" y1="49" style="fill:none;" y2="31" />
      <line x1="648" x2="607" y1="31" style="fill:none;" y2="19" />
      <line x1="607" x2="562" y1="19" style="fill:none;" y2="13" />
      <line x1="562" x2="465" y1="13" style="fill:none;" y2="18" />
      <line x1="465" x2="368" y1="18" style="fill:none;" y2="41" />
      <line x1="368" x2="290" y1="41" style="fill:none;" y2="73" />
      <line x1="290" x2="246" y1="73" style="fill:none;" y2="103" />
      <line x1="246" x2="226" y1="103" style="fill:none;" y2="125" />
      <line x1="226" x2="219" y1="125" style="fill:none;" y2="133" />
      <line x1="219" x2="219" y1="133" style="fill:none;" y2="135" />
      <polygon style="stroke:none;" points=" 212 145 221 140 214 135 212 145" />
      <line x1="212" x2="219" y1="145" style="fill:none;" y2="135" />
      <circle style="fill:blue; stroke:none;" r="9.5" cx="204.5" cy="154.5" />
      <circle style="fill:blue; stroke:none;" r="9.5" cx="414.5" cy="354.5" />
      <circle style="fill:blue; stroke:none;" r="9.5" cx="504.5" cy="314.5" />
      <circle style="fill:blue; stroke:none;" r="9.5" cx="204.5" cy="274.5" />
      <circle style="fill:blue; stroke:none;" r="9.5" cx="584.5" cy="74.5" />
      <circle style="fill:rgb(255,153,0); stroke:none;" r="9.5" cx="124.5" cy="304.5" />
      <circle style="fill:rgb(255,153,0); stroke:none;" r="9.5" cx="624.5" cy="154.5" />
      <circle style="fill:rgb(255,153,0); stroke:none;" r="9.5" cx="624.5" cy="234.5" />
      <polygon style="fill:red; stroke:none;" points=" 215 365 235 355 235 375" />
      <polygon style="stroke:none;" points=" 425 225 405 215 405 235" />
      <rect x="324" y="230" width="3" style="fill:blue; stroke:none;" rx="1.5" ry="1.5" height="30" />
      <rect x="424" y="60" width="3" style="fill:blue; stroke:none;" rx="1.5" ry="1.5" height="30" />
      <rect x="414" y="430" width="3" style="fill:blue; stroke:none;" rx="1.5" ry="1.5" height="30" />
      <rect x="604" y="350" width="3" style="fill:blue; stroke:none;" rx="1.5" ry="1.5" height="30" />
    </g>
  </g>
</svg>
