<?xml version="1.0" encoding="UTF-8"?>

<!DOCTYPE svg PUBLIC '-//W3C//DTD SVG 1.0//EN' 'http://www.w3.org/TR/2001/REC-SVG-20010904/DTD/svg10.dtd'>
<svg style="fill-opacity:1; color-rendering:auto; color-interpolation:auto; text-rendering:auto; stroke:black; stroke-linecap:square; stroke-miterlimit:10; shape-rendering:auto; stroke-opacity:1; fill:black; stroke-dasharray:none; font-weight:normal; stroke-width:1; font-family:&apos;Dialog&apos;; font-style:normal; stroke-linejoin:miter; font-size:12; stroke-dashoffset:0; image-rendering:auto;" xmlns="http://www.w3.org/2000/svg" width="799.0" xmlns:xlink="http://www.w3.org/1999/xlink" height="536.0">
  <!--Generated by the Batik Graphics2D SVG Generator-->
  <defs id="genericDefs" />
  <g>
    <g style="fill:white; stroke:white;">
      <rect x="0" y="0" width="1897" style="stroke:none;" height="845" />
    </g>
    <g style="font-family:sans-serif; font-size:14;">
      <text xml:space="preserve" x="155" y="236" style="stroke:none;">INSTRUCTION_READY</text>
      <text xml:space="preserve" x="405" y="439" style="stroke:none;">FLOAT_ALU</text>
      <text xml:space="preserve" x="508" y="399" style="stroke:none;">INT_ALU</text>
      <text xml:space="preserve" x="175" y="352" style="stroke:none;">REGISTERS_FILL</text>
      <text xml:space="preserve" x="582" y="156" style="stroke:none;">BARRIER</text>
      <text xml:space="preserve" x="107" y="388" style="stroke:none;">SCHEDULER</text>
      <text xml:space="preserve" x="631" y="234" style="stroke:none;">READ</text>
      <text xml:space="preserve" x="626" y="320" style="stroke:none;">WRITE</text>
      <text xml:space="preserve" x="213" y="444" style="stroke:none;">Input_Gate1</text>
      <text xml:space="preserve" x="399" y="304" style="stroke:none;">Output_Gate</text>
      <text xml:space="preserve" x="312" y="334" style="stroke:none;">DISPATCHER</text>
      <text xml:space="preserve" x="403" y="164" style="stroke:none;">BARRIER_SYNC</text>
      <text xml:space="preserve" x="409" y="534" style="stroke:none;">FLOAT_OP</text>
      <text xml:space="preserve" x="611" y="454" style="stroke:none;">INT_OP</text>
      <line x1="455" x2="248" y1="135" style="fill:none;" y2="206" />
      <polygon style="stroke:none;" points=" 238 209 248 210 246 202 238 209" />
      <line x1="238" x2="248" y1="209" style="fill:none;" y2="206" />
      <line x1="445" x2="439" y1="505" style="fill:none;" y2="505" />
      <line x1="439" x2="397" y1="505" style="fill:none;" y2="506" />
      <line x1="397" x2="300" y1="506" style="fill:none;" y2="508" />
      <line x1="300" x2="187" y1="508" style="fill:none;" y2="502" />
      <line x1="187" x2="141" y1="502" style="fill:none;" y2="492" />
      <line x1="141" x2="104" y1="492" style="fill:none;" y2="478" />
      <line x1="104" x2="89" y1="478" style="fill:none;" y2="469" />
      <line x1="89" x2="77" y1="469" style="fill:none;" y2="458" />
      <line x1="77" x2="68" y1="458" style="fill:none;" y2="446" />
      <line x1="68" x2="61" y1="446" style="fill:none;" y2="432" />
      <line x1="61" x2="56" y1="432" style="fill:none;" y2="417" />
      <line x1="56" x2="53" y1="417" style="fill:none;" y2="401" />
      <line x1="53" x2="55" y1="401" style="fill:none;" y2="367" />
      <line x1="55" x2="65" y1="367" style="fill:none;" y2="333" />
      <line x1="65" x2="83" y1="333" style="fill:none;" y2="302" />
      <line x1="83" x2="108" y1="302" style="fill:none;" y2="276" />
      <line x1="108" x2="135" y1="276" style="fill:none;" y2="256" />
      <line x1="135" x2="184" y1="256" style="fill:none;" y2="231" />
      <line x1="184" x2="205" y1="231" style="fill:none;" y2="221" />
      <line x1="205" x2="208" y1="221" style="fill:none;" y2="220" />
      <polygon style="stroke:none;" points=" 218 216 208 216 211 223 218 216" />
      <line x1="218" x2="208" y1="216" style="fill:none;" y2="220" />
      <line x1="635" x2="638" y1="425" style="fill:none;" y2="423" />
      <line x1="638" x2="661" y1="423" style="fill:none;" y2="412" />
      <line x1="661" x2="713" y1="412" style="fill:none;" y2="384" />
      <line x1="713" x2="742" y1="384" style="fill:none;" y2="363" />
      <line x1="742" x2="766" y1="363" style="fill:none;" y2="335" />
      <line x1="766" x2="781" y1="335" style="fill:none;" y2="302" />
      <line x1="781" x2="788" y1="302" style="fill:none;" y2="266" />
      <line x1="788" x2="786" y1="266" style="fill:none;" y2="228" />
      <line x1="786" x2="778" y1="228" style="fill:none;" y2="192" />
      <line x1="778" x2="763" y1="192" style="fill:none;" y2="159" />
      <line x1="763" x2="741" y1="159" style="fill:none;" y2="130" />
      <line x1="741" x2="713" y1="130" style="fill:none;" y2="107" />
      <line x1="713" x2="679" y1="107" style="fill:none;" y2="89" />
      <line x1="679" x2="639" y1="89" style="fill:none;" y2="77" />
      <line x1="639" x2="593" y1="77" style="fill:none;" y2="71" />
      <line x1="593" x2="494" y1="71" style="fill:none;" y2="76" />
      <line x1="494" x2="395" y1="76" style="fill:none;" y2="98" />
      <line x1="395" x2="316" y1="98" style="fill:none;" y2="129" />
      <line x1="316" x2="270" y1="129" style="fill:none;" y2="160" />
      <line x1="270" x2="250" y1="160" style="fill:none;" y2="181" />
      <line x1="250" x2="243" y1="181" style="fill:none;" y2="190" />
      <line x1="243" x2="242" y1="190" style="fill:none;" y2="192" />
      <polygon style="stroke:none;" points=" 235 202 244 197 238 192 235 202" />
      <line x1="235" x2="242" y1="202" style="fill:none;" y2="192" />
      <line x1="440" x2="445" y1="280" style="fill:none;" y2="415" />
      <line x1="440" x2="535" y1="280" style="fill:none;" y2="375" />
      <line x1="440" x2="612" y1="280" style="fill:none;" y2="132" />
      <line x1="440" x2="650" y1="280" style="fill:none;" y2="210" />
      <line x1="440" x2="648" y1="280" style="fill:none;" y2="296" />
      <line x1="148" x2="252" y1="364" style="fill:none;" y2="420" />
      <line x1="232" x2="252" y1="328" style="fill:none;" y2="420" />
      <line x1="355" x2="440" y1="305" style="fill:none;" y2="280" />
      <line x1="252" x2="355" y1="420" style="fill:none;" y2="305" />
      <line x1="612" x2="466" y1="132" style="fill:none;" y2="135" />
      <polygon style="stroke:none;" points=" 456 135 465 139 465 131 456 135" />
      <line x1="456" x2="466" y1="135" style="fill:none;" y2="135" />
      <line x1="445" x2="445" y1="415" style="fill:none;" y2="490" />
      <polygon style="stroke:none;" points=" 445 490 449 481 441 481 445 490" />
      <line x1="445" x2="445" y1="490" style="fill:none;" y2="490" />
      <line x1="535" x2="624" y1="375" style="fill:none;" y2="421" />
      <polygon style="stroke:none;" points=" 634 425 627 417 624 424 634 425" />
      <line x1="634" x2="624" y1="425" style="fill:none;" y2="421" />
      <circle style="fill:blue; stroke:none;" r="9.5" cx="227.5" cy="211.5" />
      <circle style="fill:blue; stroke:none;" r="9.5" cx="444.5" cy="414.5" />
      <circle style="fill:blue; stroke:none;" r="9.5" cx="534.5" cy="374.5" />
      <circle style="fill:blue; stroke:none;" r="9.5" cx="231.5" cy="327.5" />
      <circle style="fill:blue; stroke:none;" r="9.5" cx="611.5" cy="131.5" />
      <circle style="fill:rgb(255,153,0); stroke:none;" r="9.5" cx="147.5" cy="363.5" />
      <circle style="fill:rgb(255,153,0); stroke:none;" r="9.5" cx="649.5" cy="209.5" />
      <circle style="fill:rgb(255,153,0); stroke:none;" r="9.5" cx="647.5" cy="295.5" />
      <polygon style="fill:red; stroke:none;" points=" 242 420 262 410 262 430" />
      <polygon style="stroke:none;" points=" 450 280 430 270 430 290" />
      <rect x="354" y="290" width="3" style="fill:blue; stroke:none;" rx="1.5" ry="1.5" height="30" />
      <rect x="454" y="120" width="3" style="fill:blue; stroke:none;" rx="1.5" ry="1.5" height="30" />
      <rect x="444" y="490" width="3" style="fill:blue; stroke:none;" rx="1.5" ry="1.5" height="30" />
      <rect x="634" y="410" width="3" style="fill:blue; stroke:none;" rx="1.5" ry="1.5" height="30" />
    </g>
  </g>
</svg>
