<?xml version="1.0" encoding="UTF-8"?>

<!DOCTYPE svg PUBLIC '-//W3C//DTD SVG 1.0//EN' 'http://www.w3.org/TR/2001/REC-SVG-20010904/DTD/svg10.dtd'>
<svg style="fill-opacity:1; color-rendering:auto; color-interpolation:auto; text-rendering:auto; stroke:black; stroke-linecap:square; stroke-miterlimit:10; shape-rendering:auto; stroke-opacity:1; fill:black; stroke-dasharray:none; font-weight:normal; stroke-width:1; font-family:&apos;Dialog&apos;; font-style:normal; stroke-linejoin:miter; font-size:12; stroke-dashoffset:0; image-rendering:auto;" xmlns="http://www.w3.org/2000/svg" width="806.0" xmlns:xlink="http://www.w3.org/1999/xlink" height="561.0">
  <!--Generated by the Batik Graphics2D SVG Generator-->
  <defs id="genericDefs" />
  <g>
    <g style="fill:white; stroke:white;">
      <rect x="0" y="0" width="2160" style="stroke:none;" height="1223" />
    </g>
    <g style="font-family:sans-serif; font-size:14;">
      <text xml:space="preserve" x="668" y="419" style="stroke:none;">Rep1</text>
      <text xml:space="preserve" x="474" y="269" style="stroke:none;">PROCESSOR_REP</text>
      <text xml:space="preserve" x="167" y="189" style="stroke:none;">SM_REP</text>
      <text xml:space="preserve" x="491" y="339" style="stroke:none;">PROCESSOR</text>
      <text xml:space="preserve" x="268" y="189" style="stroke:none;">STREAMING_MULTIPROCESSOR</text>
      <text xml:space="preserve" x="170" y="109" style="stroke:none;">DEVICE</text>
      <text xml:space="preserve" x="646" y="489" style="stroke:none;">WARP_REG</text>
      <text xml:space="preserve" x="562" y="559" style="stroke:none;">REGISTER_FILE</text>
      <text xml:space="preserve" x="340" y="269" style="stroke:none;">L1_CACHE</text>
      <text xml:space="preserve" x="45" y="49" style="stroke:none;">DRAM</text>
      <text xml:space="preserve" x="320" y="49" style="stroke:none;">L2_CACHE</text>
      <text xml:space="preserve" x="735" y="559" style="stroke:none;">WARP</text>
      <text xml:space="preserve" x="348" y="419" style="stroke:none;">EXEC_UNIT</text>
      <text xml:space="preserve" x="505" y="419" style="stroke:none;">MEMORY</text>
      <line x1="375" x2="375" y1="165" style="fill:none;" y2="245" />
      <line x1="195" x2="375" y1="165" style="fill:none;" y2="165" />
      <line x1="535" x2="535" y1="315" style="fill:none;" y2="395" />
      <line x1="535" x2="385" y1="315" style="fill:none;" y2="395" />
      <line x1="535" x2="535" y1="245" style="fill:none;" y2="315" />
      <line x1="375" x2="535" y1="165" style="fill:none;" y2="245" />
      <line x1="685" x2="615" y1="465" style="fill:none;" y2="535" />
      <line x1="685" x2="685" y1="395" style="fill:none;" y2="465" />
      <line x1="535" x2="685" y1="315" style="fill:none;" y2="395" />
      <line x1="685" x2="755" y1="465" style="fill:none;" y2="535" />
      <line x1="195" x2="355" y1="85" style="fill:none;" y2="25" />
      <line x1="195" x2="195" y1="85" style="fill:none;" y2="165" />
      <line x1="195" x2="65" y1="85" style="fill:none;" y2="25" />
      <rect x="635" y="386" width="101" style="fill:red; stroke:none;" rx="4" ry="4" height="19" />
      <text x="672" y="401" style="fill:white; stroke:none;" xml:space="preserve">Rep</text>
      <rect x="485" y="236" width="101" style="fill:red; stroke:none;" rx="4" ry="4" height="19" />
      <text x="522" y="251" style="fill:white; stroke:none;" xml:space="preserve">Rep</text>
      <rect x="145" y="156" width="101" style="fill:red; stroke:none;" rx="4" ry="4" height="19" />
      <text x="182" y="171" style="fill:white; stroke:none;" xml:space="preserve">Rep</text>
      <rect x="485" y="306" width="101" style="fill:blue; stroke:none;" rx="4" ry="4" height="19" />
      <text x="523" y="321" style="fill:white; stroke:none;" xml:space="preserve">Join</text>
      <rect x="325" y="156" width="101" style="fill:blue; stroke:none;" rx="4" ry="4" height="19" />
      <text x="363" y="171" style="fill:white; stroke:none;" xml:space="preserve">Join</text>
      <rect x="145" y="76" width="101" style="fill:blue; stroke:none;" rx="4" ry="4" height="19" />
      <text x="183" y="91" style="fill:white; stroke:none;" xml:space="preserve">Join</text>
      <rect x="635" y="456" width="101" style="fill:blue; stroke:none;" rx="4" ry="4" height="19" />
      <text x="673" y="471" style="fill:white; stroke:none;" xml:space="preserve">Join</text>
      <rect x="565" y="526" width="101" style="fill:rgb(64,64,64); stroke:none;" rx="4" ry="4" height="19" />
      <text x="584" y="541" style="fill:white; stroke:none;" xml:space="preserve">Submodel</text>
      <rect x="325" y="236" width="101" style="fill:rgb(64,64,64); stroke:none;" rx="4" ry="4" height="19" />
      <text x="344" y="251" style="fill:white; stroke:none;" xml:space="preserve">Submodel</text>
      <rect x="15" y="16" width="101" style="fill:rgb(64,64,64); stroke:none;" rx="4" ry="4" height="19" />
      <text x="34" y="31" style="fill:white; stroke:none;" xml:space="preserve">Submodel</text>
      <rect x="305" y="16" width="101" style="fill:rgb(64,64,64); stroke:none;" rx="4" ry="4" height="19" />
      <text x="324" y="31" style="fill:white; stroke:none;" xml:space="preserve">Submodel</text>
      <rect x="705" y="526" width="101" style="fill:rgb(64,64,64); stroke:none;" rx="4" ry="4" height="19" />
      <text x="724" y="541" style="fill:white; stroke:none;" xml:space="preserve">Submodel</text>
      <rect x="335" y="386" width="101" style="fill:rgb(64,64,64); stroke:none;" rx="4" ry="4" height="19" />
      <text x="354" y="401" style="fill:white; stroke:none;" xml:space="preserve">Submodel</text>
      <rect x="485" y="386" width="101" style="fill:rgb(64,64,64); stroke:none;" rx="4" ry="4" height="19" />
      <text x="504" y="401" style="fill:white; stroke:none;" xml:space="preserve">Submodel</text>
    </g>
  </g>
</svg>
