<?xml version="1.0" encoding="UTF-8"?>

<!DOCTYPE svg PUBLIC '-//W3C//DTD SVG 1.0//EN' 'http://www.w3.org/TR/2001/REC-SVG-20010904/DTD/svg10.dtd'>
<svg style="fill-opacity:1; color-rendering:auto; color-interpolation:auto; text-rendering:auto; stroke:black; stroke-linecap:square; stroke-miterlimit:10; shape-rendering:auto; stroke-opacity:1; fill:black; stroke-dasharray:none; font-weight:normal; stroke-width:1; font-family:&apos;Dialog&apos;; font-style:normal; stroke-linejoin:miter; font-size:12; stroke-dashoffset:0; image-rendering:auto;" xmlns="http://www.w3.org/2000/svg" width="1502.0" xmlns:xlink="http://www.w3.org/1999/xlink" height="651.0">
  <!--Generated by the Batik Graphics2D SVG Generator-->
  <defs id="genericDefs" />
  <g>
    <g style="fill:white; stroke:white;">
      <rect x="0" y="0" width="1897" style="stroke:none;" height="845" />
    </g>
    <g style="font-family:sans-serif; font-size:14;">
      <text xml:space="preserve" x="964" y="59" style="stroke:none;">READ_L1</text>
      <text xml:space="preserve" x="959" y="174" style="stroke:none;">READ_L2</text>
      <text xml:space="preserve" x="942" y="299" style="stroke:none;">READ_DRAM</text>
      <text xml:space="preserve" x="704" y="94" style="stroke:none;">READ_LOCAL</text>
      <text xml:space="preserve" x="699" y="254" style="stroke:none;">READ_GLOBAL</text>
      <text xml:space="preserve" x="686" y="449" style="stroke:none;">WRITE_LOCAL</text>
      <text xml:space="preserve" x="681" y="549" style="stroke:none;">WRITE_GLOBAL</text>
      <text xml:space="preserve" x="951" y="439" style="stroke:none;">WRITE_L1</text>
      <text xml:space="preserve" x="951" y="509" style="stroke:none;">WRITE_L2</text>
      <text xml:space="preserve" x="944" y="574" style="stroke:none;">WRITE_DRAM</text>
      <text xml:space="preserve" x="574" y="354" style="stroke:none;">READ_REGISTER_FILE</text>
      <text xml:space="preserve" x="566" y="649" style="stroke:none;">WRITE_REGISTER_FILE</text>
      <text xml:space="preserve" x="1341" y="99" style="stroke:none;">WARP_ACCESS_L1</text>
      <text xml:space="preserve" x="1351" y="289" style="stroke:none;">WARP_ACCESS_L2</text>
      <text xml:space="preserve" x="1349" y="509" style="stroke:none;">WARP_ACCESS_DRAM</text>
      <text xml:space="preserve" x="91" y="174" style="stroke:none;">READ</text>
      <text xml:space="preserve" x="88" y="494" style="stroke:none;">WRITE</text>
      <text xml:space="preserve" x="211" y="174" style="stroke:none;">Input_Gate1</text>
      <text xml:space="preserve" x="211" y="494" style="stroke:none;">Input_Gate2</text>
      <text xml:space="preserve" x="560" y="174" style="stroke:none;">READ_SELECT</text>
      <text xml:space="preserve" x="552" y="489" style="stroke:none;">WRITE_SELECT</text>
      <text xml:space="preserve" x="1160" y="99" style="stroke:none;">Output_Gate1</text>
      <text xml:space="preserve" x="1170" y="289" style="stroke:none;">Output_Gate2</text>
      <text xml:space="preserve" x="1180" y="509" style="stroke:none;">Output_Gate3</text>
      <text xml:space="preserve" x="373" y="179" style="stroke:none;">PERFORM_READ</text>
      <text xml:space="preserve" x="803" y="105" style="stroke:none;">LOCAL_READ_FROM</text>
      <text xml:space="preserve" x="775" y="305" style="stroke:none;">GLOBAL_READ_FROM</text>
      <text xml:space="preserve" x="350" y="499" style="stroke:none;">PERFORM_WRITE</text>
      <text xml:space="preserve" x="788" y="465" style="stroke:none;">LOCAL_WRITE_TO</text>
      <text xml:space="preserve" x="783" y="565" style="stroke:none;">GLOBAL_WRITE_TO</text>
      <line x1="873" x2="975" y1="58" style="fill:none;" y2="37" />
      <polygon style="stroke:none;" points=" 985 36 975 34 977 41 985 36" />
      <line x1="985" x2="975" y1="36" style="fill:none;" y2="37" />
      <line x1="850" x2="983" y1="258" style="fill:none;" y2="55" />
      <polygon style="stroke:none;" points=" 989 45 981 51 987 55 989 45" />
      <line x1="989" x2="983" y1="45" style="fill:none;" y2="55" />
      <line x1="873" x2="970" y1="70" style="fill:none;" y2="138" />
      <polygon style="stroke:none;" points=" 980 144 975 136 970 142 980 144" />
      <line x1="980" x2="970" y1="144" style="fill:none;" y2="138" />
      <line x1="850" x2="970" y1="270" style="fill:none;" y2="166" />
      <polygon style="stroke:none;" points=" 980 158 970 161 975 167 980 158" />
      <line x1="980" x2="970" y1="158" style="fill:none;" y2="166" />
      <line x1="873" x2="975" y1="82" style="fill:none;" y2="255" />
      <polygon style="stroke:none;" points=" 980 265 979 255 972 259 980 265" />
      <line x1="980" x2="975" y1="265" style="fill:none;" y2="255" />
      <line x1="850" x2="966" y1="282" style="fill:none;" y2="275" />
      <polygon style="stroke:none;" points=" 975 275 966 272 966 279 975 275" />
      <line x1="975" x2="966" y1="275" style="fill:none;" y2="275" />
      <line x1="610" x2="750" y1="150" style="fill:none;" y2="70" />
      <line x1="610" x2="750" y1="150" style="fill:none;" y2="230" />
      <line x1="605" x2="735" y1="465" style="fill:none;" y2="425" />
      <line x1="605" x2="735" y1="465" style="fill:none;" y2="525" />
      <line x1="850" x2="966" y1="418" style="fill:none;" y2="415" />
      <polygon style="stroke:none;" points=" 975 415 966 411 966 419 975 415" />
      <line x1="975" x2="966" y1="415" style="fill:none;" y2="415" />
      <line x1="850" x2="965" y1="518" style="fill:none;" y2="429" />
      <polygon style="stroke:none;" points=" 975 422 965 425 970 431 975 422" />
      <line x1="975" x2="965" y1="422" style="fill:none;" y2="429" />
      <line x1="850" x2="965" y1="430" style="fill:none;" y2="477" />
      <polygon style="stroke:none;" points=" 975 481 968 474 965 481 975 481" />
      <line x1="975" x2="965" y1="481" style="fill:none;" y2="477" />
      <line x1="850" x2="965" y1="530" style="fill:none;" y2="491" />
      <polygon style="stroke:none;" points=" 975 488 965 487 967 495 975 488" />
      <line x1="975" x2="965" y1="488" style="fill:none;" y2="491" />
      <line x1="850" x2="970" y1="442" style="fill:none;" y2="536" />
      <polygon style="stroke:none;" points=" 980 543 975 534 970 540 980 543" />
      <line x1="980" x2="970" y1="543" style="fill:none;" y2="536" />
      <line x1="850" x2="971" y1="542" style="fill:none;" y2="550" />
      <polygon style="stroke:none;" points=" 980 550 971 546 971 553 980 550" />
      <line x1="980" x2="971" y1="550" style="fill:none;" y2="550" />
      <line x1="610" x2="650" y1="150" style="fill:none;" y2="330" />
      <line x1="605" x2="645" y1="465" style="fill:none;" y2="625" />
      <line x1="1205" x2="1405" y1="75" style="fill:none;" y2="75" />
      <line x1="1215" x2="1415" y1="265" style="fill:none;" y2="265" />
      <line x1="1225" x2="1425" y1="485" style="fill:none;" y2="485" />
      <line x1="110" x2="250" y1="150" style="fill:none;" y2="150" />
      <line x1="110" x2="250" y1="470" style="fill:none;" y2="470" />
      <line x1="430" x2="610" y1="150" style="fill:none;" y2="150" />
      <line x1="410" x2="605" y1="470" style="fill:none;" y2="465" />
      <line x1="873" x2="1205" y1="58" style="fill:none;" y2="75" />
      <line x1="850" x2="1205" y1="258" style="fill:none;" y2="75" />
      <line x1="850" x2="1205" y1="418" style="fill:none;" y2="75" />
      <line x1="850" x2="1205" y1="518" style="fill:none;" y2="75" />
      <line x1="873" x2="1215" y1="70" style="fill:none;" y2="265" />
      <line x1="850" x2="1215" y1="270" style="fill:none;" y2="265" />
      <line x1="850" x2="1215" y1="430" style="fill:none;" y2="265" />
      <line x1="850" x2="1215" y1="530" style="fill:none;" y2="265" />
      <line x1="850" x2="1225" y1="542" style="fill:none;" y2="485" />
      <line x1="850" x2="1225" y1="442" style="fill:none;" y2="485" />
      <line x1="850" x2="1225" y1="282" style="fill:none;" y2="485" />
      <line x1="873" x2="1225" y1="82" style="fill:none;" y2="485" />
      <line x1="250" x2="430" y1="150" style="fill:none;" y2="150" />
      <line x1="750" x2="860" y1="70" style="fill:none;" y2="70" />
      <polygon style="stroke:none;" points=" 869 70 860 66 860 74 869 70" />
      <line x1="869" x2="860" y1="70" style="fill:none;" y2="70" />
      <line x1="750" x2="836" y1="230" style="fill:none;" y2="266" />
      <polygon style="stroke:none;" points=" 846 269 839 262 836 269 846 269" />
      <line x1="846" x2="836" y1="269" style="fill:none;" y2="266" />
      <line x1="250" x2="410" y1="470" style="fill:none;" y2="470" />
      <line x1="735" x2="837" y1="425" style="fill:none;" y2="430" />
      <polygon style="stroke:none;" points=" 846 430 837 426 837 433 846 430" />
      <line x1="846" x2="837" y1="430" style="fill:none;" y2="430" />
      <line x1="735" x2="837" y1="525" style="fill:none;" y2="530" />
      <polygon style="stroke:none;" points=" 846 530 837 526 837 533 846 530" />
      <line x1="846" x2="837" y1="530" style="fill:none;" y2="530" />
      <circle style="fill:blue; stroke:none;" r="9.5" cx="994.5" cy="34.5" />
      <circle style="fill:blue; stroke:none;" r="9.5" cx="989.5" cy="149.5" />
      <circle style="fill:blue; stroke:none;" r="9.5" cx="984.5" cy="274.5" />
      <circle style="fill:blue; stroke:none;" r="9.5" cx="749.5" cy="69.5" />
      <circle style="fill:blue; stroke:none;" r="9.5" cx="749.5" cy="229.5" />
      <circle style="fill:blue; stroke:none;" r="9.5" cx="734.5" cy="424.5" />
      <circle style="fill:blue; stroke:none;" r="9.5" cx="734.5" cy="524.5" />
      <circle style="fill:blue; stroke:none;" r="9.5" cx="984.5" cy="414.5" />
      <circle style="fill:blue; stroke:none;" r="9.5" cx="984.5" cy="484.5" />
      <circle style="fill:blue; stroke:none;" r="9.5" cx="989.5" cy="549.5" />
      <circle style="fill:blue; stroke:none;" r="9.5" cx="649.5" cy="329.5" />
      <circle style="fill:blue; stroke:none;" r="9.5" cx="644.5" cy="624.5" />
      <circle style="fill:blue; stroke:none;" r="9.5" cx="1404.5" cy="74.5" />
      <circle style="fill:blue; stroke:none;" r="9.5" cx="1414.5" cy="264.5" />
      <circle style="fill:blue; stroke:none;" r="9.5" cx="1424.5" cy="484.5" />
      <circle style="fill:rgb(255,153,0); stroke:none;" r="9.5" cx="109.5" cy="149.5" />
      <circle style="fill:rgb(255,153,0); stroke:none;" r="9.5" cx="109.5" cy="469.5" />
      <polygon style="fill:red; stroke:none;" points=" 240 150 260 140 260 160" />
      <polygon style="fill:red; stroke:none;" points=" 240 470 260 460 260 480" />
      <polygon style="stroke:none;" points=" 620 150 600 140 600 160" />
      <polygon style="stroke:none;" points=" 615 465 595 455 595 475" />
      <polygon style="stroke:none;" points=" 1215 75 1195 65 1195 85" />
      <polygon style="stroke:none;" points=" 1225 265 1205 255 1205 275" />
      <polygon style="stroke:none;" points=" 1235 485 1215 475 1215 495" />
      <rect x="429" y="135" width="3" style="fill:blue; stroke:none;" rx="1.5" ry="1.5" height="30" />
      <rect x="869" y="49" width="3" style="fill:blue; stroke:none;" rx="1.5" ry="1.5" height="42" />
      <circle style="fill:blue; stroke:none;" r="3" cx="875" cy="58" />
      <circle style="fill:blue; stroke:none;" r="3" cx="875" cy="70" />
      <circle style="fill:blue; stroke:none;" r="3" cx="875" cy="82" />
      <rect x="846" y="249" width="3" style="fill:blue; stroke:none;" rx="1.5" ry="1.5" height="42" />
      <circle style="fill:blue; stroke:none;" r="3" cx="852" cy="258" />
      <circle style="fill:blue; stroke:none;" r="3" cx="852" cy="270" />
      <circle style="fill:blue; stroke:none;" r="3" cx="852" cy="282" />
      <rect x="409" y="455" width="3" style="fill:blue; stroke:none;" rx="1.5" ry="1.5" height="30" />
      <rect x="846" y="409" width="3" style="fill:blue; stroke:none;" rx="1.5" ry="1.5" height="42" />
      <circle style="fill:blue; stroke:none;" r="3" cx="852" cy="418" />
      <circle style="fill:blue; stroke:none;" r="3" cx="852" cy="430" />
      <circle style="fill:blue; stroke:none;" r="3" cx="852" cy="442" />
      <rect x="846" y="509" width="3" style="fill:blue; stroke:none;" rx="1.5" ry="1.5" height="42" />
      <circle style="fill:blue; stroke:none;" r="3" cx="852" cy="518" />
      <circle style="fill:blue; stroke:none;" r="3" cx="852" cy="530" />
      <circle style="fill:blue; stroke:none;" r="3" cx="852" cy="542" />
    </g>
  </g>
</svg>
