<?xml version="1.0" encoding="UTF-8"?>

<!DOCTYPE svg PUBLIC '-//W3C//DTD SVG 1.0//EN' 'http://www.w3.org/TR/2001/REC-SVG-20010904/DTD/svg10.dtd'>
<svg style="fill-opacity:1; color-rendering:auto; color-interpolation:auto; text-rendering:auto; stroke:black; stroke-linecap:square; stroke-miterlimit:10; shape-rendering:auto; stroke-opacity:1; fill:black; stroke-dasharray:none; font-weight:normal; stroke-width:1; font-family:&apos;Dialog&apos;; font-style:normal; stroke-linejoin:miter; font-size:12; stroke-dashoffset:0; image-rendering:auto;" xmlns="http://www.w3.org/2000/svg" width="1172.0" xmlns:xlink="http://www.w3.org/1999/xlink" height="631.0">
  <!--Generated by the Batik Graphics2D SVG Generator-->
  <defs id="genericDefs" />
  <g>
    <g style="fill:white; stroke:white;">
      <rect x="0" y="0" width="1172" style="stroke:none;" height="631" />
    </g>
    <g style="font-family:sans-serif; font-size:14;">
      <text xml:space="preserve" x="704" y="39" style="stroke:none;">READ_L1</text>
      <text xml:space="preserve" x="694" y="159" style="stroke:none;">READ_L2</text>
      <text xml:space="preserve" x="682" y="279" style="stroke:none;">READ_DRAM</text>
      <text xml:space="preserve" x="439" y="79" style="stroke:none;">READ_LOCAL</text>
      <text xml:space="preserve" x="434" y="239" style="stroke:none;">READ_GLOBAL</text>
      <text xml:space="preserve" x="426" y="429" style="stroke:none;">WRITE_LOCAL</text>
      <text xml:space="preserve" x="421" y="529" style="stroke:none;">WRITE_GLOBAL</text>
      <text xml:space="preserve" x="691" y="419" style="stroke:none;">WRITE_L1</text>
      <text xml:space="preserve" x="691" y="489" style="stroke:none;">WRITE_L2</text>
      <text xml:space="preserve" x="679" y="559" style="stroke:none;">WRITE_DRAM</text>
      <text xml:space="preserve" x="309" y="339" style="stroke:none;">READ_REGISTER_FILE</text>
      <text xml:space="preserve" x="306" y="629" style="stroke:none;">WRITE_REGISTER_FILE</text>
      <text xml:space="preserve" x="1001" y="79" style="stroke:none;">WARP_ACCESS_L1</text>
      <text xml:space="preserve" x="1011" y="269" style="stroke:none;">WARP_ACCESS_L2</text>
      <text xml:space="preserve" x="1019" y="489" style="stroke:none;">WARP_ACCESS_DRAM</text>
      <text xml:space="preserve" x="16" y="159" style="stroke:none;">READ</text>
      <text xml:space="preserve" x="13" y="469" style="stroke:none;">WRITE</text>
      <text xml:space="preserve" x="76" y="159" style="stroke:none;">Input_Gate1</text>
      <text xml:space="preserve" x="66" y="469" style="stroke:none;">Input_Gate2</text>
      <text xml:space="preserve" x="295" y="159" style="stroke:none;">READ_SELECT</text>
      <text xml:space="preserve" x="292" y="469" style="stroke:none;">WRITE_SELECT</text>
      <text xml:space="preserve" x="900" y="79" style="stroke:none;">Output_Gate1</text>
      <text xml:space="preserve" x="910" y="269" style="stroke:none;">Output_Gate2</text>
      <text xml:space="preserve" x="920" y="489" style="stroke:none;">Output_Gate3</text>
      <text xml:space="preserve" x="178" y="164" style="stroke:none;">PERFORM_READ</text>
      <text xml:space="preserve" x="545" y="90" style="stroke:none;">LOCAL_READ_FROM</text>
      <text xml:space="preserve" x="510" y="290" style="stroke:none;">GLOBAL_READ_FROM</text>
      <text xml:space="preserve" x="165" y="474" style="stroke:none;">PERFORM_WRITE</text>
      <text xml:space="preserve" x="523" y="450" style="stroke:none;">LOCAL_WRITE_TO</text>
      <text xml:space="preserve" x="518" y="550" style="stroke:none;">GLOBAL_WRITE_TO</text>
      <line x1="965" x2="1095" y1="465" style="fill:none;" y2="465" />
      <line x1="955" x2="1075" y1="245" style="fill:none;" y2="245" />
      <line x1="585" x2="965" y1="527" style="fill:none;" y2="465" />
      <line x1="585" x2="955" y1="515" style="fill:none;" y2="245" />
      <line x1="585" x2="706" y1="527" style="fill:none;" y2="535" />
      <polygon style="stroke:none;" points=" 715 535 706 531 706 538 715 535" />
      <line x1="715" x2="706" y1="535" style="fill:none;" y2="535" />
      <line x1="585" x2="945" y1="503" style="fill:none;" y2="55" />
      <line x1="945" x2="1065" y1="55" style="fill:none;" y2="55" />
      <line x1="475" x2="571" y1="505" style="fill:none;" y2="515" />
      <polygon style="stroke:none;" points=" 581 515 572 510 571 518 581 515" />
      <line x1="581" x2="571" y1="515" style="fill:none;" y2="515" />
      <line x1="585" x2="705" y1="515" style="fill:none;" y2="471" />
      <polygon style="stroke:none;" points=" 715 468 705 468 708 475 715 468" />
      <line x1="715" x2="705" y1="468" style="fill:none;" y2="471" />
      <line x1="345" x2="385" y1="445" style="fill:none;" y2="605" />
      <line x1="345" x2="475" y1="445" style="fill:none;" y2="505" />
      <line x1="35" x2="105" y1="445" style="fill:none;" y2="445" />
      <line x1="105" x2="225" y1="445" style="fill:none;" y2="445" />
      <line x1="225" x2="345" y1="445" style="fill:none;" y2="445" />
      <line x1="585" x2="705" y1="503" style="fill:none;" y2="409" />
      <polygon style="stroke:none;" points=" 715 402 705 405 710 411 715 402" />
      <line x1="715" x2="705" y1="402" style="fill:none;" y2="409" />
      <line x1="585" x2="965" y1="427" style="fill:none;" y2="465" />
      <line x1="585" x2="955" y1="415" style="fill:none;" y2="245" />
      <line x1="585" x2="945" y1="403" style="fill:none;" y2="55" />
      <line x1="585" x2="705" y1="427" style="fill:none;" y2="521" />
      <polygon style="stroke:none;" points=" 715 528 710 519 705 525 715 528" />
      <line x1="715" x2="705" y1="528" style="fill:none;" y2="521" />
      <line x1="585" x2="705" y1="415" style="fill:none;" y2="459" />
      <polygon style="stroke:none;" points=" 715 462 708 455 705 462 715 462" />
      <line x1="715" x2="705" y1="462" style="fill:none;" y2="459" />
      <line x1="585" x2="706" y1="403" style="fill:none;" y2="395" />
      <polygon style="stroke:none;" points=" 715 395 706 392 706 399 715 395" />
      <line x1="715" x2="706" y1="395" style="fill:none;" y2="395" />
      <line x1="475" x2="571" y1="405" style="fill:none;" y2="415" />
      <polygon style="stroke:none;" points=" 581 415 572 410 571 418 581 415" />
      <line x1="581" x2="571" y1="415" style="fill:none;" y2="415" />
      <line x1="345" x2="475" y1="445" style="fill:none;" y2="405" />
      <line x1="615" x2="965" y1="67" style="fill:none;" y2="465" />
      <line x1="615" x2="955" y1="55" style="fill:none;" y2="245" />
      <line x1="615" x2="945" y1="43" style="fill:none;" y2="55" />
      <line x1="615" x2="715" y1="67" style="fill:none;" y2="235" />
      <polygon style="stroke:none;" points=" 720 245 719 235 712 239 720 245" />
      <line x1="720" x2="715" y1="245" style="fill:none;" y2="235" />
      <line x1="615" x2="705" y1="55" style="fill:none;" y2="121" />
      <polygon style="stroke:none;" points=" 715 128 710 119 705 126 715 128" />
      <line x1="715" x2="705" y1="128" style="fill:none;" y2="121" />
      <line x1="615" x2="715" y1="43" style="fill:none;" y2="19" />
      <polygon style="stroke:none;" points=" 725 17 715 15 717 23 725 17" />
      <line x1="725" x2="715" y1="17" style="fill:none;" y2="19" />
      <line x1="585" x2="965" y1="267" style="fill:none;" y2="465" />
      <line x1="585" x2="955" y1="255" style="fill:none;" y2="245" />
      <line x1="585" x2="945" y1="243" style="fill:none;" y2="55" />
      <line x1="585" x2="705" y1="267" style="fill:none;" y2="255" />
      <polygon style="stroke:none;" points=" 715 255 705 252 706 260 715 255" />
      <line x1="715" x2="705" y1="255" style="fill:none;" y2="255" />
      <line x1="585" x2="705" y1="255" style="fill:none;" y2="151" />
      <polygon style="stroke:none;" points=" 715 143 705 146 710 152 715 143" />
      <line x1="715" x2="705" y1="143" style="fill:none;" y2="151" />
      <line x1="585" x2="723" y1="243" style="fill:none;" y2="35" />
      <polygon style="stroke:none;" points=" 729 25 721 31 727 35 729 25" />
      <line x1="729" x2="723" y1="25" style="fill:none;" y2="35" />
      <line x1="485" x2="571" y1="215" style="fill:none;" y2="251" />
      <polygon style="stroke:none;" points=" 581 254 574 247 571 254 581 254" />
      <line x1="581" x2="571" y1="254" style="fill:none;" y2="251" />
      <line x1="485" x2="602" y1="55" style="fill:none;" y2="55" />
      <polygon style="stroke:none;" points=" 611 55 602 51 602 59 611 55" />
      <line x1="611" x2="602" y1="55" style="fill:none;" y2="55" />
      <line x1="345" x2="385" y1="135" style="fill:none;" y2="315" />
      <line x1="345" x2="485" y1="135" style="fill:none;" y2="215" />
      <line x1="345" x2="485" y1="135" style="fill:none;" y2="55" />
      <line x1="235" x2="345" y1="135" style="fill:none;" y2="135" />
      <line x1="115" x2="235" y1="135" style="fill:none;" y2="135" />
      <line x1="35" x2="115" y1="135" style="fill:none;" y2="135" />
      <circle style="fill:blue; stroke:none;" r="9.5" cx="734.5" cy="14.5" />
      <circle style="fill:blue; stroke:none;" r="9.5" cx="724.5" cy="134.5" />
      <circle style="fill:blue; stroke:none;" r="9.5" cx="724.5" cy="254.5" />
      <circle style="fill:blue; stroke:none;" r="9.5" cx="484.5" cy="54.5" />
      <circle style="fill:blue; stroke:none;" r="9.5" cx="484.5" cy="214.5" />
      <circle style="fill:blue; stroke:none;" r="9.5" cx="474.5" cy="404.5" />
      <circle style="fill:blue; stroke:none;" r="9.5" cx="474.5" cy="504.5" />
      <circle style="fill:blue; stroke:none;" r="9.5" cx="724.5" cy="394.5" />
      <circle style="fill:blue; stroke:none;" r="9.5" cx="724.5" cy="464.5" />
      <circle style="fill:blue; stroke:none;" r="9.5" cx="724.5" cy="534.5" />
      <circle style="fill:blue; stroke:none;" r="9.5" cx="384.5" cy="314.5" />
      <circle style="fill:blue; stroke:none;" r="9.5" cx="384.5" cy="604.5" />
      <circle style="fill:blue; stroke:none;" r="9.5" cx="1064.5" cy="54.5" />
      <circle style="fill:blue; stroke:none;" r="9.5" cx="1074.5" cy="244.5" />
      <circle style="fill:blue; stroke:none;" r="9.5" cx="1094.5" cy="464.5" />
      <circle style="fill:rgb(255,153,0); stroke:none;" r="9.5" cx="34.5" cy="134.5" />
      <circle style="fill:rgb(255,153,0); stroke:none;" r="9.5" cx="34.5" cy="444.5" />
      <polygon style="fill:red; stroke:none;" points=" 105 135 125 125 125 145" />
      <polygon style="fill:red; stroke:none;" points=" 95 445 115 435 115 455" />
      <polygon style="stroke:none;" points=" 355 135 335 125 335 145" />
      <polygon style="stroke:none;" points=" 355 445 335 435 335 455" />
      <polygon style="stroke:none;" points=" 955 55 935 45 935 65" />
      <polygon style="stroke:none;" points=" 965 245 945 235 945 255" />
      <polygon style="stroke:none;" points=" 975 465 955 455 955 475" />
      <rect x="234" y="120" width="3" style="fill:blue; stroke:none;" rx="1.5" ry="1.5" height="30" />
      <rect x="611" y="34" width="3" style="fill:blue; stroke:none;" rx="1.5" ry="1.5" height="42" />
      <circle style="fill:blue; stroke:none;" r="3" cx="617" cy="43" />
      <circle style="fill:blue; stroke:none;" r="3" cx="617" cy="55" />
      <circle style="fill:blue; stroke:none;" r="3" cx="617" cy="67" />
      <rect x="581" y="234" width="3" style="fill:blue; stroke:none;" rx="1.5" ry="1.5" height="42" />
      <circle style="fill:blue; stroke:none;" r="3" cx="587" cy="243" />
      <circle style="fill:blue; stroke:none;" r="3" cx="587" cy="255" />
      <circle style="fill:blue; stroke:none;" r="3" cx="587" cy="267" />
      <rect x="224" y="430" width="3" style="fill:blue; stroke:none;" rx="1.5" ry="1.5" height="30" />
      <rect x="581" y="394" width="3" style="fill:blue; stroke:none;" rx="1.5" ry="1.5" height="42" />
      <circle style="fill:blue; stroke:none;" r="3" cx="587" cy="403" />
      <circle style="fill:blue; stroke:none;" r="3" cx="587" cy="415" />
      <circle style="fill:blue; stroke:none;" r="3" cx="587" cy="427" />
      <rect x="581" y="494" width="3" style="fill:blue; stroke:none;" rx="1.5" ry="1.5" height="42" />
      <circle style="fill:blue; stroke:none;" r="3" cx="587" cy="503" />
      <circle style="fill:blue; stroke:none;" r="3" cx="587" cy="515" />
      <circle style="fill:blue; stroke:none;" r="3" cx="587" cy="527" />
    </g>
  </g>
</svg>
