<?xml version="1.0" encoding="UTF-8"?>

<!DOCTYPE svg PUBLIC '-//W3C//DTD SVG 1.0//EN' 'http://www.w3.org/TR/2001/REC-SVG-20010904/DTD/svg10.dtd'>
<svg style="fill-opacity:1; color-rendering:auto; color-interpolation:auto; text-rendering:auto; stroke:black; stroke-linecap:square; stroke-miterlimit:10; shape-rendering:auto; stroke-opacity:1; fill:black; stroke-dasharray:none; font-weight:normal; stroke-width:1; font-family:&apos;Dialog&apos;; font-style:normal; stroke-linejoin:miter; font-size:12; stroke-dashoffset:0; image-rendering:auto;" xmlns="http://www.w3.org/2000/svg" width="663.0" xmlns:xlink="http://www.w3.org/1999/xlink" height="501.0">
  <!--Generated by the Batik Graphics2D SVG Generator-->
  <defs id="genericDefs" />
  <g>
    <g style="fill:white; stroke:white;">
      <rect x="0" y="0" width="2160" style="stroke:none;" height="1221" />
    </g>
    <g style="font-family:sans-serif; font-size:14;">
      <text xml:space="preserve" x="101" y="499" style="stroke:none;">indexes</text>
      <text xml:space="preserve" x="78" y="319" style="stroke:none;">REGISTERS_FILL</text>
      <text xml:space="preserve" x="527" y="409" style="stroke:none;">ACTIVE_REGISTERS</text>
      <text xml:space="preserve" x="77" y="409" style="stroke:none;">LIVE_REGISTERS</text>
      <text xml:space="preserve" x="253" y="407" style="stroke:none;">Input_Gate1</text>
      <text xml:space="preserve" x="358" y="414" style="stroke:none;">INCREASE_REGISTERS</text>
      <line x1="292" x2="435" y1="383" style="fill:none;" y2="385" />
      <line x1="435" x2="576" y1="385" style="fill:none;" y2="385" />
      <polygon style="stroke:none;" points=" 585 385 576 381 576 389 585 385" />
      <line x1="585" x2="576" y1="385" style="fill:none;" y2="385" />
      <line x1="135" x2="292" y1="385" style="fill:none;" y2="383" />
      <line x1="125" x2="292" y1="475" style="fill:none;" y2="383" />
      <line x1="135" x2="292" y1="295" style="fill:none;" y2="383" />
      <circle style="fill:blue; stroke:none;" r="9.5" cx="124.5" cy="474.5" />
      <circle style="fill:blue; stroke:none;" r="9.5" cx="134.5" cy="294.5" />
      <circle style="fill:blue; stroke:none;" r="9.5" cx="594.5" cy="384.5" />
      <circle style="fill:rgb(255,153,0); stroke:none;" r="9.5" cx="134.5" cy="384.5" />
      <polygon style="fill:red; stroke:none;" points=" 282 383 302 373 302 393" />
      <rect x="434" y="370" width="3" style="fill:blue; stroke:none;" rx="1.5" ry="1.5" height="30" />
    </g>
  </g>
</svg>
