<?xml version="1.0" encoding="UTF-8"?>

<!DOCTYPE svg PUBLIC '-//W3C//DTD SVG 1.0//EN' 'http://www.w3.org/TR/2001/REC-SVG-20010904/DTD/svg10.dtd'>
<svg style="fill-opacity:1; color-rendering:auto; color-interpolation:auto; text-rendering:auto; stroke:black; stroke-linecap:square; stroke-miterlimit:10; shape-rendering:auto; stroke-opacity:1; fill:black; stroke-dasharray:none; font-weight:normal; stroke-width:1; font-family:&apos;Dialog&apos;; font-style:normal; stroke-linejoin:miter; font-size:12; stroke-dashoffset:0; image-rendering:auto;" xmlns="http://www.w3.org/2000/svg" width="593.0" xmlns:xlink="http://www.w3.org/1999/xlink" height="221.0">
  <!--Generated by the Batik Graphics2D SVG Generator-->
  <defs id="genericDefs" />
  <g>
    <g style="fill:white; stroke:white;">
      <rect x="0" y="0" width="2160" style="stroke:none;" height="1221" />
    </g>
    <g style="font-family:sans-serif; font-size:14;">
      <text xml:space="preserve" x="31" y="219" style="stroke:none;">indexes</text>
      <text xml:space="preserve" x="8" y="39" style="stroke:none;">REGISTERS_FILL</text>
      <text xml:space="preserve" x="457" y="129" style="stroke:none;">ACTIVE_REGISTERS</text>
      <text xml:space="preserve" x="7" y="129" style="stroke:none;">LIVE_REGISTERS</text>
      <text xml:space="preserve" x="186" y="129" style="stroke:none;">Input_Gate1</text>
      <text xml:space="preserve" x="288" y="134" style="stroke:none;">INCREASE_REGISTERS</text>
      <line x1="365" x2="506" y1="105" style="fill:none;" y2="105" />
      <polygon style="stroke:none;" points=" 515 105 506 101 506 109 515 105" />
      <line x1="515" x2="506" y1="105" style="fill:none;" y2="105" />
      <line x1="225" x2="365" y1="105" style="fill:none;" y2="105" />
      <line x1="55" x2="225" y1="195" style="fill:none;" y2="105" />
      <line x1="65" x2="225" y1="105" style="fill:none;" y2="105" />
      <line x1="65" x2="225" y1="15" style="fill:none;" y2="105" />
      <circle style="fill:blue; stroke:none;" r="9.5" cx="54.5" cy="194.5" />
      <circle style="fill:blue; stroke:none;" r="9.5" cx="64.5" cy="14.5" />
      <circle style="fill:blue; stroke:none;" r="9.5" cx="524.5" cy="104.5" />
      <circle style="fill:rgb(255,153,0); stroke:none;" r="9.5" cx="64.5" cy="104.5" />
      <polygon style="fill:red; stroke:none;" points=" 215 105 235 95 235 115" />
      <rect x="364" y="90" width="3" style="fill:blue; stroke:none;" rx="1.5" ry="1.5" height="30" />
    </g>
  </g>
</svg>
