<?xml version="1.0" encoding="UTF-8"?>

<!DOCTYPE svg PUBLIC '-//W3C//DTD SVG 1.0//EN' 'http://www.w3.org/TR/2001/REC-SVG-20010904/DTD/svg10.dtd'>
<svg style="fill-opacity:1; color-rendering:auto; color-interpolation:auto; text-rendering:auto; stroke:black; stroke-linecap:square; stroke-miterlimit:10; shape-rendering:auto; stroke-opacity:1; fill:black; stroke-dasharray:none; font-weight:normal; stroke-width:1; font-family:&apos;Dialog&apos;; font-style:normal; stroke-linejoin:miter; font-size:12; stroke-dashoffset:0; image-rendering:auto;" xmlns="http://www.w3.org/2000/svg" width="938.0" xmlns:xlink="http://www.w3.org/1999/xlink" height="461.0">
  <!--Generated by the Batik Graphics2D SVG Generator-->
  <defs id="genericDefs" />
  <g>
    <g style="fill:white; stroke:white;">
      <rect x="0" y="0" width="3804" style="stroke:none;" height="1862" />
    </g>
    <g style="font-family:sans-serif; font-size:14;">
      <text xml:space="preserve" x="84" y="459" style="stroke:none;">INST_COUNTER</text>
      <text xml:space="preserve" x="24" y="199" style="stroke:none;">INSTRUCTION_READY</text>
      <text xml:space="preserve" x="170" y="147" style="stroke:none;">REGISTERS_FILL</text>
      <text xml:space="preserve" x="502" y="95" style="stroke:none;">WARP_ACCESS_DRAM</text>
      <text xml:space="preserve" x="514" y="173" style="stroke:none;">WARP_ACCESS_L2</text>
      <text xml:space="preserve" x="514" y="264" style="stroke:none;">WARP_ACCESS_L1</text>
      <text xml:space="preserve" x="895" y="173" style="stroke:none;">Place1</text>
      <text xml:space="preserve" x="12" y="277" style="stroke:none;">WARP</text>
      <text xml:space="preserve" x="329" y="43" style="stroke:none;">SCHEDULER</text>
      <text xml:space="preserve" x="240" y="394" style="stroke:none;">Input_Gate1</text>
      <text xml:space="preserve" x="325" y="121" style="stroke:none;">Output_Gate1</text>
      <text xml:space="preserve" x="327" y="230" style="stroke:none;">DISPATCHER</text>
      <text xml:space="preserve" x="660" y="256" style="stroke:none;">L1_CLOCK</text>
      <text xml:space="preserve" x="660" y="178" style="stroke:none;">L2_CLOCK</text>
      <text xml:space="preserve" x="674" y="100" style="stroke:none;">DRAM_CLOCK</text>
      <line x1="578" x2="711" y1="71" style="fill:none;" y2="71" />
      <polygon style="stroke:none;" points=" 720 71 711 67 711 75 720 71" />
      <line x1="720" x2="711" y1="71" style="fill:none;" y2="71" />
      <line x1="370" x2="370" y1="97" style="fill:none;" y2="19" />
      <line x1="227" x2="279" y1="123" style="fill:none;" y2="370" />
      <line x1="97" x2="279" y1="175" style="fill:none;" y2="370" />
      <line x1="136" x2="279" y1="435" style="fill:none;" y2="370" />
      <line x1="32" x2="279" y1="253" style="fill:none;" y2="370" />
      <line x1="721" x2="896" y1="71" style="fill:none;" y2="143" />
      <polygon style="stroke:none;" points=" 906 146 899 139 896 146 906 146" />
      <line x1="906" x2="896" y1="146" style="fill:none;" y2="143" />
      <line x1="695" x2="897" y1="149" style="fill:none;" y2="149" />
      <polygon style="stroke:none;" points=" 906 149 897 145 897 153 906 149" />
      <line x1="906" x2="897" y1="149" style="fill:none;" y2="149" />
      <line x1="578" x2="685" y1="149" style="fill:none;" y2="149" />
      <polygon style="stroke:none;" points=" 694 149 685 145 685 153 694 149" />
      <line x1="694" x2="685" y1="149" style="fill:none;" y2="149" />
      <line x1="279" x2="370" y1="370" style="fill:none;" y2="201" />
      <line x1="370" x2="370" y1="201" style="fill:none;" y2="97" />
      <line x1="695" x2="896" y1="227" style="fill:none;" y2="155" />
      <polygon style="stroke:none;" points=" 906 152 896 151 899 159 906 152" />
      <line x1="906" x2="896" y1="152" style="fill:none;" y2="155" />
      <line x1="578" x2="684" y1="240" style="fill:none;" y2="228" />
      <polygon style="stroke:none;" points=" 694 227 684 224 685 232 694 227" />
      <line x1="694" x2="684" y1="227" style="fill:none;" y2="228" />
      <circle style="fill:blue; stroke:none;" r="9.5" cx="135.5" cy="434.5" />
      <circle style="fill:blue; stroke:none;" r="9.5" cx="96.5" cy="174.5" />
      <circle style="fill:blue; stroke:none;" r="9.5" cx="226.5" cy="122.5" />
      <circle style="fill:blue; stroke:none;" r="9.5" cx="577.5" cy="70.5" />
      <circle style="fill:blue; stroke:none;" r="9.5" cx="577.5" cy="148.5" />
      <circle style="fill:blue; stroke:none;" r="9.5" cx="577.5" cy="239.5" />
      <circle style="fill:blue; stroke:none;" r="9.5" cx="915.5" cy="148.5" />
      <circle style="fill:rgb(255,153,0); stroke:none;" r="9.5" cx="31.5" cy="252.5" />
      <circle style="fill:rgb(255,153,0); stroke:none;" r="9.5" cx="369.5" cy="18.5" />
      <polygon style="fill:red; stroke:none;" points=" 269 370 289 360 289 380" />
      <polygon style="stroke:none;" points=" 380 97 360 87 360 107" />
      <rect x="369" y="186" width="3" style="fill:blue; stroke:none;" rx="1.5" ry="1.5" height="30" />
      <rect x="694" y="212" width="3" style="fill:blue; stroke:none;" rx="1.5" ry="1.5" height="30" />
      <rect x="694" y="134" width="3" style="fill:blue; stroke:none;" rx="1.5" ry="1.5" height="30" />
      <rect x="720" y="56" width="3" style="fill:blue; stroke:none;" rx="1.5" ry="1.5" height="30" />
    </g>
  </g>
</svg>
