<?xml version="1.0" encoding="UTF-8"?>

<!DOCTYPE svg PUBLIC '-//W3C//DTD SVG 1.0//EN' 'http://www.w3.org/TR/2001/REC-SVG-20010904/DTD/svg10.dtd'>
<svg style="fill-opacity:1; color-rendering:auto; color-interpolation:auto; text-rendering:auto; stroke:black; stroke-linecap:square; stroke-miterlimit:10; shape-rendering:auto; stroke-opacity:1; fill:black; stroke-dasharray:none; font-weight:normal; stroke-width:1; font-family:&apos;Dialog&apos;; font-style:normal; stroke-linejoin:miter; font-size:12; stroke-dashoffset:0; image-rendering:auto;" xmlns="http://www.w3.org/2000/svg" width="1094.0" xmlns:xlink="http://www.w3.org/1999/xlink" height="461.0">
  <!--Generated by the Batik Graphics2D SVG Generator-->
  <defs id="genericDefs" />
  <g>
    <g style="fill:white; stroke:white;">
      <rect x="0" y="0" width="3804" style="stroke:none;" height="1862" />
    </g>
    <g style="font-family:sans-serif; font-size:14;">
      <text xml:space="preserve" x="136" y="459" style="stroke:none;">INST_COUNTER</text>
      <text xml:space="preserve" x="76" y="199" style="stroke:none;">INSTRUCTION_READY</text>
      <text xml:space="preserve" x="222" y="147" style="stroke:none;">REGISTERS_FILL</text>
      <text xml:space="preserve" x="658" y="95" style="stroke:none;">WARP_ACCESS_DRAM</text>
      <text xml:space="preserve" x="670" y="173" style="stroke:none;">WARP_ACCESS_L2</text>
      <text xml:space="preserve" x="670" y="264" style="stroke:none;">WARP_ACCESS_L1</text>
      <text xml:space="preserve" x="1051" y="173" style="stroke:none;">Place1</text>
      <text xml:space="preserve" x="64" y="277" style="stroke:none;">WARP</text>
      <text xml:space="preserve" x="381" y="43" style="stroke:none;">SCHEDULER</text>
      <text xml:space="preserve" x="292" y="394" style="stroke:none;">Input_Gate1</text>
      <text xml:space="preserve" x="377" y="121" style="stroke:none;">Output_Gate1</text>
      <text xml:space="preserve" x="379" y="230" style="stroke:none;">DISPATCHER</text>
      <text xml:space="preserve" x="816" y="256" style="stroke:none;">L1_CLOCK</text>
      <text xml:space="preserve" x="816" y="178" style="stroke:none;">L2_CLOCK</text>
      <text xml:space="preserve" x="830" y="100" style="stroke:none;">DRAM_CLOCK</text>
      <line x1="331" x2="422" y1="370" style="fill:none;" y2="201" />
      <line x1="188" x2="331" y1="435" style="fill:none;" y2="370" />
      <line x1="422" x2="422" y1="201" style="fill:none;" y2="97" />
      <line x1="422" x2="422" y1="97" style="fill:none;" y2="19" />
      <line x1="84" x2="331" y1="253" style="fill:none;" y2="370" />
      <line x1="279" x2="331" y1="123" style="fill:none;" y2="370" />
      <line x1="149" x2="331" y1="175" style="fill:none;" y2="370" />
      <line x1="851" x2="1052" y1="227" style="fill:none;" y2="155" />
      <polygon style="stroke:none;" points=" 1062 152 1052 151 1055 159 1062 152" />
      <line x1="1062" x2="1052" y1="152" style="fill:none;" y2="155" />
      <line x1="851" x2="1053" y1="149" style="fill:none;" y2="149" />
      <polygon style="stroke:none;" points=" 1062 149 1053 145 1053 153 1062 149" />
      <line x1="1062" x2="1053" y1="149" style="fill:none;" y2="149" />
      <line x1="877" x2="1052" y1="71" style="fill:none;" y2="143" />
      <polygon style="stroke:none;" points=" 1062 146 1055 139 1052 146 1062 146" />
      <line x1="1062" x2="1052" y1="146" style="fill:none;" y2="143" />
      <line x1="734" x2="840" y1="240" style="fill:none;" y2="228" />
      <polygon style="stroke:none;" points=" 850 227 840 224 841 232 850 227" />
      <line x1="850" x2="840" y1="227" style="fill:none;" y2="228" />
      <line x1="734" x2="841" y1="149" style="fill:none;" y2="149" />
      <polygon style="stroke:none;" points=" 850 149 841 145 841 153 850 149" />
      <line x1="850" x2="841" y1="149" style="fill:none;" y2="149" />
      <line x1="734" x2="867" y1="71" style="fill:none;" y2="71" />
      <polygon style="stroke:none;" points=" 876 71 867 67 867 75 876 71" />
      <line x1="876" x2="867" y1="71" style="fill:none;" y2="71" />
      <circle style="fill:blue; stroke:none;" r="9.5" cx="187.5" cy="434.5" />
      <circle style="fill:blue; stroke:none;" r="9.5" cx="148.5" cy="174.5" />
      <circle style="fill:blue; stroke:none;" r="9.5" cx="278.5" cy="122.5" />
      <circle style="fill:blue; stroke:none;" r="9.5" cx="733.5" cy="70.5" />
      <circle style="fill:blue; stroke:none;" r="9.5" cx="733.5" cy="148.5" />
      <circle style="fill:blue; stroke:none;" r="9.5" cx="733.5" cy="239.5" />
      <circle style="fill:blue; stroke:none;" r="9.5" cx="1071.5" cy="148.5" />
      <circle style="fill:rgb(255,153,0); stroke:none;" r="9.5" cx="83.5" cy="252.5" />
      <circle style="fill:rgb(255,153,0); stroke:none;" r="9.5" cx="421.5" cy="18.5" />
      <polygon style="fill:red; stroke:none;" points=" 321 370 341 360 341 380" />
      <polygon style="stroke:none;" points=" 432 97 412 87 412 107" />
      <rect x="421" y="186" width="3" style="fill:blue; stroke:none;" rx="1.5" ry="1.5" height="30" />
      <rect x="850" y="212" width="3" style="fill:blue; stroke:none;" rx="1.5" ry="1.5" height="30" />
      <rect x="850" y="134" width="3" style="fill:blue; stroke:none;" rx="1.5" ry="1.5" height="30" />
      <rect x="876" y="56" width="3" style="fill:blue; stroke:none;" rx="1.5" ry="1.5" height="30" />
    </g>
  </g>
</svg>
